<svg width="34" height="34" viewBox="0 0 34 34" fill="none" xmlns="http://www.w3.org/2000/svg">
<path d="M14.3333 16.9216C14.3333 18.4118 15.5098 19.5882 17 19.5882C18.4902 19.5882 19.6667 18.4118 19.6667 16.9216C19.6667 15.4314 18.4902 14.2549 17 14.2549C15.5098 14.2549 14.3333 15.4314 14.3333 16.9216Z" fill="white"/>
<path fill-rule="evenodd" clip-rule="evenodd" d="M20.2157 10.5686C19.3529 10.4902 19.1176 10.4902 17 10.4902C14.8824 10.4902 14.6471 10.4902 13.7843 10.5686C11.6667 10.6471 10.6471 11.6667 10.5686 13.7843C10.4902 14.6471 10.4902 14.8824 10.4902 17C10.4902 18.2926 10.5194 18.8839 10.5422 19.3446C10.5567 19.6387 10.5686 19.8796 10.5686 20.2157C10.6471 22.3333 11.6667 23.3529 13.7843 23.4314C14.6471 23.5098 14.8824 23.5098 17 23.5098C18.2926 23.5098 18.8839 23.4806 19.3446 23.4578C19.6387 23.4433 19.8796 23.4314 20.2157 23.4314C22.3333 23.3529 23.3529 22.3333 23.4314 20.2157C23.5098 19.3529 23.5098 19.1176 23.5098 17C23.5098 15.7074 23.4806 15.1161 23.4578 14.6554C23.4433 14.3613 23.4314 14.1204 23.4314 13.7843C23.3529 11.6667 22.3333 10.6471 20.2157 10.5686ZM12.9216 17C12.9216 14.7255 14.7255 12.9216 17 12.9216C19.2745 12.9216 21.0784 14.7255 21.0784 17C21.0784 19.2745 19.2745 21.0784 17 21.0784C14.7255 21.0784 12.9216 19.2745 12.9216 17ZM20.2941 12.6863C20.2941 12.1373 20.6863 11.7451 21.2353 11.7451C21.7843 11.7451 22.1765 12.1373 22.1765 12.6863C22.1765 13.2353 21.7843 13.6275 21.2353 13.6275C20.6863 13.6275 20.2941 13.2353 20.2941 12.6863Z" fill="white"/>
<path fill-rule="evenodd" clip-rule="evenodd" d="M16.8439 33.6878C26.1465 33.6878 33.6878 26.1465 33.6878 16.8439C33.6878 7.54127 26.1465 0 16.8439 0C7.54127 0 0 7.54127 0 16.8439C0 26.1465 7.54127 33.6878 16.8439 33.6878ZM13.7059 9.07843C14.5686 9 14.8824 9 17 9C18.2926 9 18.9131 9.02922 19.3966 9.05199C19.7052 9.06653 19.958 9.07843 20.2941 9.07843C23.1961 9.23529 24.7647 10.8039 24.9216 13.7059C25 14.5686 25 14.8039 25 17C25 18.35 24.9704 18.959 24.9475 19.4283C24.9332 19.7224 24.9216 19.9617 24.9216 20.2941C24.7647 23.1961 23.1961 24.7647 20.2941 24.9216C19.4314 25 19.1961 25 17 25C15.65 25 15.041 24.9704 14.5717 24.9475C14.2776 24.9332 14.0383 24.9216 13.7059 24.9216C10.8039 24.7647 9.23529 23.1961 9.07843 20.2941C9 19.4314 9 19.1961 9 17C9 15.65 9.02964 15.041 9.05247 14.5717C9.06679 14.2776 9.07843 14.0383 9.07843 13.7059C9.23529 10.8039 10.8039 9.23529 13.7059 9.07843Z" fill="white"/>
</svg>
